#define HS_FDIAGONAL_width 8
#define HS_FDIAGONAL_height 8
static unsigned char HS_FDIAGONAL_bits[] = {
   0x01, 0x02, 0x04, 0x08, 0x10, 0x20, 0x40, 0x80};
