#define HS_VERTICAL_width 8
#define HS_VERTICAL_height 8
static unsigned char HS_VERTICAL_bits[] = {
   0x08, 0x08, 0x08, 0x08, 0x08, 0x08, 0x08, 0x08};
